<?xml version="1.0" encoding="UTF-8"?>
<svg width="149px" height="30px" viewBox="0 0 149 30" version="1.1" xmlns="http://www.w3.org/2000/svg" xmlns:xlink="http://www.w3.org/1999/xlink">
    <!-- Generator: Sketch 48.2 (47327) - http://www.bohemiancoding.com/sketch -->
    <title>746-01_FSL-logo-english-White</title>
    <desc>Created with Sketch.</desc>
    <defs></defs>
    <g id="850_MainPage" stroke="none" stroke-width="1" fill="none" fill-rule="evenodd" transform="translate(-48.000000, -15.000000)">
        <g id="746-01_FSL-logo-english-White" transform="translate(48.000000, 15.000000)" fill="#FFFFFF" fill-rule="nonzero">
            <g id="Group" transform="translate(38.000000, 1.000000)">
                <polygon id="Shape" points="2.74906542 2.43392857 2.74906542 4.29821429 5.70560748 4.29821429 5.70560748 6.21428571 2.74906542 6.21428571 2.74906542 10.3571429 0.778037383 10.3571429 0.778037383 0.517857143 7.78037383 0.517857143 7.78037383 2.43392857"></polygon>
                <path d="M12.2929907,5.23035714 C12.1373832,5.075 11.9817757,4.97142857 11.7742991,4.86785714 C11.5668224,4.76428571 11.411215,4.7125 11.1518692,4.7125 C10.9443925,4.7125 10.788785,4.7125 10.6331776,4.76428571 C10.4775701,4.81607143 10.3738318,4.91964286 10.2182243,5.02321429 C10.0626168,5.12678571 10.0107477,5.28214286 9.9588785,5.48928571 C9.90700935,5.69642857 9.85514019,5.95535714 9.85514019,6.26607143 L9.85514019,10.2535714 L7.93598131,10.2535714 L7.93598131,3.00357143 L9.85514019,3.00357143 L9.85514019,3.46964286 C10.0107477,3.31428571 10.2182243,3.15892857 10.4775701,3.00357143 C10.7369159,2.84821429 10.9962617,2.79642857 11.3593458,2.79642857 C11.6705607,2.79642857 11.9299065,2.84821429 12.1892523,2.95178571 C12.396729,3.05535714 12.6042056,3.15892857 12.7079439,3.31428571 L12.2929907,5.23035714 Z" id="Shape"></path>
                <path d="M19.5028037,6.68035714 C19.5028037,6.83571429 19.5028037,6.93928571 19.5028037,7.04285714 C19.5028037,7.14642857 19.5028037,7.25 19.5028037,7.30178571 L15.0420561,7.30178571 C15.0420561,7.56071429 15.0939252,7.76785714 15.1976636,7.92321429 C15.3014019,8.07857143 15.4051402,8.23392857 15.5607477,8.3375 C15.7163551,8.44107143 15.8719626,8.54464286 16.0275701,8.59642857 C16.1831776,8.64821429 16.3906542,8.64821429 16.5462617,8.64821429 C16.8056075,8.64821429 17.0649533,8.59642857 17.2724299,8.49285714 C17.4799065,8.38928571 17.6873832,8.28571429 17.7911215,8.13035714 L19.1915888,9.32142857 C18.8803738,9.68392857 18.5172897,9.99464286 17.9985981,10.2017857 C17.5317757,10.4089286 17.0130841,10.5125 16.5462617,10.5125 C16.0275701,10.5125 15.5607477,10.4089286 15.0939252,10.2535714 C14.6271028,10.0982143 14.3158879,9.83928571 14.0046729,9.47678571 C13.6934579,9.16607143 13.4859813,8.75178571 13.3303738,8.28571429 C13.1747664,7.81964286 13.071028,7.30178571 13.071028,6.73214286 C13.071028,6.1625 13.1747664,5.64464286 13.3303738,5.17857143 C13.4859813,4.7125 13.7453271,4.29821429 14.0046729,3.9875 C14.3158879,3.625 14.6271028,3.36607143 15.0420561,3.21071429 C15.4570093,3.00357143 15.8719626,2.95178571 16.338785,2.95178571 C16.8056075,2.95178571 17.2724299,3.05535714 17.635514,3.2625 C17.9985981,3.46964286 18.3616822,3.72857143 18.621028,4.09107143 C18.8803738,4.45357143 19.0878505,4.86785714 19.2434579,5.33392857 C19.4509346,5.64464286 19.5028037,6.1625 19.5028037,6.68035714 Z M17.635514,5.85178571 C17.635514,5.69642857 17.5836449,5.54107143 17.5317757,5.38571429 C17.4799065,5.23035714 17.3761682,5.075 17.2724299,4.97142857 C17.1686916,4.86785714 17.0130841,4.76428571 16.8574766,4.66071429 C16.7018692,4.60892857 16.4943925,4.55714286 16.2869159,4.55714286 C15.9238318,4.55714286 15.664486,4.66071429 15.4570093,4.91964286 C15.2495327,5.17857143 15.1457944,5.48928571 15.0939252,5.85178571 L17.635514,5.85178571 Z" id="Shape"></path>
                <path d="M25.2084112,10.3053571 L25.2084112,6.31785714 C25.2084112,5.64464286 25.1046729,5.23035714 24.8971963,4.97142857 C24.6897196,4.7125 24.3785047,4.60892857 23.9635514,4.60892857 C23.5485981,4.60892857 23.2373832,4.7125 23.0299065,4.97142857 C22.8224299,5.23035714 22.7186916,5.64464286 22.7186916,6.26607143 L22.7186916,10.2535714 L20.7476636,10.2535714 L20.7476636,3.00357143 L22.6668224,3.00357143 L22.6668224,3.46964286 C22.8224299,3.31428571 23.0817757,3.15892857 23.3411215,3.00357143 C23.6523364,2.9 23.9635514,2.79642857 24.3785047,2.79642857 C25.3121495,2.79642857 25.9864486,3.10714286 26.453271,3.67678571 C26.8682243,4.29821429 27.1275701,5.075 27.1275701,6.11071429 L27.1275701,10.2535714 L25.2084112,10.2535714 L25.2084112,10.3053571 Z" id="Shape"></path>
                <path d="M34.1817757,9.52857143 C33.9742991,9.73571429 33.7668224,9.89107143 33.5074766,10.0464286 C33.2481308,10.2017857 32.988785,10.3053571 32.7294393,10.4089286 C32.4182243,10.5125 32.1070093,10.5125 31.7439252,10.5125 C31.2771028,10.5125 30.8102804,10.4089286 30.3953271,10.2535714 C29.9803738,10.0464286 29.6172897,9.7875 29.3060748,9.47678571 C28.9948598,9.16607143 28.735514,8.75178571 28.5799065,8.28571429 C28.4242991,7.81964286 28.3205607,7.30178571 28.3205607,6.73214286 C28.3205607,6.1625 28.4242991,5.64464286 28.5799065,5.17857143 C28.735514,4.7125 28.9948598,4.29821429 29.3060748,3.9875 C29.6172897,3.625 29.9803738,3.36607143 30.3953271,3.21071429 C30.8102804,3.00357143 31.2771028,2.95178571 31.7957944,2.95178571 C32.5219626,2.95178571 33.0925234,3.10714286 33.5593458,3.41785714 C34.0261682,3.72857143 34.3892523,4.09107143 34.7004673,4.55714286 L33.4037383,5.85178571 C33.1962617,5.54107143 32.9369159,5.28214286 32.6775701,5.075 C32.4182243,4.86785714 32.1588785,4.66071429 31.7957944,4.66071429 C31.328972,4.66071429 30.9658879,4.81607143 30.7065421,5.17857143 C30.4471963,5.54107143 30.2915888,6.00714286 30.2915888,6.62857143 C30.2915888,7.19821429 30.4471963,7.71607143 30.7065421,8.07857143 C30.9658879,8.44107143 31.328972,8.59642857 31.7957944,8.59642857 C32.1588785,8.59642857 32.5219626,8.49285714 32.7813084,8.3375 C33.0406542,8.18214286 33.3,7.92321429 33.5593458,7.66428571 L34.8042056,8.80357143 C34.5448598,9.11428571 34.3892523,9.32142857 34.1817757,9.52857143 Z" id="Shape"></path>
                <path d="M40.3542056,10.3053571 L40.3542056,6.31785714 C40.3542056,5.64464286 40.2504673,5.23035714 40.0429907,4.97142857 C39.835514,4.7125 39.5242991,4.60892857 39.1093458,4.60892857 C38.6943925,4.60892857 38.3831776,4.7125 38.1757009,4.97142857 C37.9682243,5.23035714 37.864486,5.64464286 37.864486,6.26607143 L37.864486,10.2535714 L35.9453271,10.2535714 L35.9453271,1.0875 L37.864486,0.103571429 L37.864486,3.46964286 C38.0200935,3.31428571 38.2794393,3.15892857 38.538785,3.00357143 C38.85,2.9 39.161215,2.79642857 39.5761682,2.79642857 C40.5098131,2.79642857 41.1841121,3.10714286 41.6509346,3.67678571 C42.0658879,4.29821429 42.3252336,5.075 42.3252336,6.11071429 L42.3252336,10.2535714 L40.3542056,10.2535714 L40.3542056,10.3053571 Z" id="Shape"></path>
                <path d="M51.6098131,10.3053571 L51.6098131,9.83928571 C51.4542056,10.0464286 51.1948598,10.2017857 50.8836449,10.3053571 C50.5724299,10.4089286 50.261215,10.5125 49.95,10.5125 C49.638785,10.5125 49.2757009,10.4607143 48.964486,10.3571429 C48.653271,10.2535714 48.3420561,10.0982143 48.0827103,9.89107143 C47.8233645,9.68392857 47.6158879,9.425 47.4602804,9.0625 C47.3046729,8.75178571 47.2009346,8.3375 47.2009346,7.92321429 C47.2009346,7.50892857 47.2528037,7.14642857 47.4084112,6.83571429 C47.5640187,6.525 47.7714953,6.26607143 48.0308411,6.05892857 C48.2901869,5.85178571 48.6014019,5.69642857 48.964486,5.59285714 C49.3275701,5.48928571 49.6906542,5.4375 50.1574766,5.4375 C50.4686916,5.4375 50.7799065,5.48928571 50.9873832,5.54107143 C51.1948598,5.59285714 51.4023364,5.64464286 51.5579439,5.74821429 L51.5579439,5.38571429 C51.5579439,5.12678571 51.4542056,4.91964286 51.2985981,4.7125 C51.1429907,4.50535714 50.8836449,4.45357143 50.5205607,4.45357143 C50.3130841,4.45357143 50.1056075,4.45357143 49.95,4.50535714 C49.7943925,4.55714286 49.638785,4.55714286 49.4831776,4.60892857 C49.3275701,4.66071429 49.1719626,4.7125 49.0163551,4.76428571 C48.8607477,4.81607143 48.7051402,4.91964286 48.5495327,4.97142857 L47.8233645,3.625 C48.0308411,3.52142857 48.2383178,3.41785714 48.4457944,3.31428571 C48.653271,3.21071429 48.8607477,3.15892857 49.0682243,3.10714286 C49.2757009,3.05535714 49.5350467,3.00357143 49.7425234,2.95178571 C50.0018692,2.9 50.261215,2.9 50.5724299,2.9 C51.0392523,2.9 51.4023364,2.95178571 51.7654206,3.05535714 C52.1285047,3.15892857 52.4397196,3.31428571 52.6990654,3.57321429 C52.9584112,3.83214286 53.1658879,4.03928571 53.3214953,4.40178571 C53.4771028,4.7125 53.528972,5.075 53.528972,5.48928571 L53.528972,10.4089286 L51.6098131,10.4089286 L51.6098131,10.3053571 Z M51.6098131,7.25 C51.4542056,7.14642857 51.246729,7.09464286 51.0911215,7.04285714 C50.8836449,6.99107143 50.6242991,6.99107143 50.261215,6.99107143 C49.8981308,6.99107143 49.638785,7.09464286 49.4313084,7.25 C49.2238318,7.40535714 49.1200935,7.6125 49.1200935,7.92321429 C49.1200935,8.18214286 49.2238318,8.38928571 49.3794393,8.59642857 C49.5350467,8.80357143 49.8462617,8.90714286 50.261215,8.90714286 C50.5724299,8.90714286 50.8317757,8.85535714 51.0911215,8.7 C51.3504673,8.54464286 51.5060748,8.38928571 51.6098131,8.23392857 L51.6098131,7.25 Z" id="Shape"></path>
                <path d="M60.8943925,8.18214286 C60.8943925,8.59642857 60.7906542,8.95892857 60.6350467,9.26964286 C60.4794393,9.58035714 60.2719626,9.7875 60.0126168,9.99464286 C59.753271,10.2017857 59.4420561,10.3053571 59.078972,10.4089286 C58.7158879,10.5125 58.3528037,10.5125 57.9378505,10.5125 C57.3672897,10.5125 56.796729,10.4607143 56.2261682,10.3053571 C55.6556075,10.15 55.2406542,9.94285714 54.8257009,9.68392857 L55.4481308,8.23392857 C55.8630841,8.44107143 56.2261682,8.59642857 56.6411215,8.75178571 C57.0560748,8.85535714 57.5228972,8.90714286 57.9897196,8.90714286 C58.3528037,8.90714286 58.6121495,8.85535714 58.767757,8.75178571 C58.9233645,8.64821429 58.9752336,8.49285714 58.9752336,8.3375 C58.9752336,8.18214286 58.9233645,8.02678571 58.767757,7.92321429 C58.6121495,7.81964286 58.3528037,7.71607143 57.9378505,7.6125 C57.5228972,7.45714286 57.1079439,7.35357143 56.7448598,7.19821429 C56.3817757,7.04285714 56.0705607,6.8875 55.811215,6.73214286 C55.5518692,6.525 55.3443925,6.31785714 55.2406542,6.05892857 C55.0850467,5.8 55.0331776,5.48928571 55.0331776,5.075 C55.0331776,4.7125 55.0850467,4.35 55.2406542,4.09107143 C55.3962617,3.83214286 55.6037383,3.57321429 55.8630841,3.41785714 C56.1224299,3.2625 56.4336449,3.10714286 56.796729,3.00357143 C57.1598131,2.9 57.5747664,2.9 57.9897196,2.9 C58.4565421,2.9 58.9233645,2.95178571 59.3901869,3.10714286 C59.8570093,3.2625 60.3238318,3.41785714 60.6869159,3.625 L60.064486,5.12678571 C59.7014019,4.91964286 59.3383178,4.76428571 58.9752336,4.7125 C58.6121495,4.60892857 58.2490654,4.55714286 57.9378505,4.55714286 C57.5228972,4.55714286 57.2635514,4.60892857 57.1598131,4.66071429 C57.0042056,4.76428571 56.9523364,4.86785714 56.9523364,5.02321429 C56.9523364,5.075 56.9523364,5.17857143 57.0042056,5.23035714 C57.0560748,5.28214286 57.1079439,5.33392857 57.2116822,5.4375 C57.3154206,5.54107143 57.471028,5.54107143 57.6785047,5.64464286 C57.8859813,5.69642857 58.1453271,5.8 58.4565421,5.90357143 C58.767757,6.00714286 59.078972,6.11071429 59.3901869,6.26607143 C59.7014019,6.42142857 59.9607477,6.525 60.1682243,6.73214286 C60.3757009,6.8875 60.5831776,7.14642857 60.6869159,7.40535714 C60.8425234,7.50892857 60.8943925,7.81964286 60.8943925,8.18214286 Z" id="Shape"></path>
                <path d="M70.178972,10.3053571 L70.178972,9.83928571 C70.0233645,10.0464286 69.7640187,10.2017857 69.4528037,10.3053571 C69.1415888,10.4089286 68.8303738,10.5125 68.5191589,10.5125 C68.2079439,10.5125 67.8448598,10.4607143 67.5336449,10.3571429 C67.2224299,10.2535714 66.911215,10.0982143 66.6518692,9.89107143 C66.3925234,9.68392857 66.1850467,9.425 66.0294393,9.0625 C65.8738318,8.75178571 65.7700935,8.3375 65.7700935,7.92321429 C65.7700935,7.50892857 65.8219626,7.14642857 65.9775701,6.83571429 C66.1331776,6.525 66.3406542,6.26607143 66.6,6.05892857 C66.8593458,5.85178571 67.1705607,5.69642857 67.5336449,5.59285714 C67.896729,5.48928571 68.2598131,5.4375 68.7266355,5.4375 C69.0378505,5.4375 69.3490654,5.48928571 69.5565421,5.54107143 C69.7640187,5.59285714 69.9714953,5.64464286 70.1271028,5.74821429 L70.1271028,5.38571429 C70.1271028,5.12678571 70.0233645,4.91964286 69.867757,4.7125 C69.7121495,4.50535714 69.4528037,4.45357143 69.0897196,4.45357143 C68.882243,4.45357143 68.6747664,4.45357143 68.5191589,4.50535714 C68.3635514,4.55714286 68.2079439,4.55714286 68.0523364,4.60892857 C67.896729,4.66071429 67.7411215,4.7125 67.585514,4.76428571 C67.4299065,4.81607143 67.2742991,4.91964286 67.1186916,4.97142857 L66.3925234,3.625 C66.6,3.52142857 66.8074766,3.41785714 67.0149533,3.31428571 C67.2224299,3.21071429 67.4299065,3.15892857 67.6373832,3.10714286 C67.8448598,3.05535714 68.1042056,3.00357143 68.3116822,2.95178571 C68.571028,2.9 68.8303738,2.9 69.1415888,2.9 C69.6084112,2.9 69.9714953,2.95178571 70.3345794,3.05535714 C70.6976636,3.15892857 71.0088785,3.31428571 71.2682243,3.57321429 C71.5275701,3.83214286 71.7350467,4.03928571 71.8906542,4.40178571 C72.0462617,4.7125 72.0981308,5.075 72.0981308,5.48928571 L72.0981308,10.4089286 L70.178972,10.4089286 L70.178972,10.3053571 Z M70.178972,7.25 C70.0233645,7.14642857 69.8158879,7.09464286 69.6602804,7.04285714 C69.4528037,6.99107143 69.1934579,6.99107143 68.8303738,6.99107143 C68.4672897,6.99107143 68.2079439,7.09464286 68.0004673,7.25 C67.7929907,7.40535714 67.6892523,7.6125 67.6892523,7.92321429 C67.6892523,8.18214286 67.7929907,8.38928571 67.9485981,8.59642857 C68.1042056,8.80357143 68.4154206,8.90714286 68.8303738,8.90714286 C69.1415888,8.90714286 69.4009346,8.85535714 69.6602804,8.7 C69.9196262,8.54464286 70.0752336,8.38928571 70.178972,8.23392857 L70.178972,7.25 Z" id="Shape"></path>
                <path d="M7.93598131,22.8892857 C7.93598131,23.3553571 7.88411215,23.7696429 7.72850467,24.1839286 C7.5728972,24.5464286 7.36542056,24.9089286 7.05420561,25.1678571 C6.74299065,25.4267857 6.32803738,25.6339286 5.86121495,25.7892857 C5.39439252,25.9446429 4.82383178,25.9964286 4.14953271,25.9964286 C3.31962617,25.9964286 2.59345794,25.8410714 1.91915888,25.5303571 C1.24485981,25.2196429 0.726168224,24.8053571 0.363084112,24.2357143 L1.7635514,22.9928571 C2.12663551,23.4071429 2.48971963,23.6660714 2.9046729,23.8732143 C3.31962617,24.0285714 3.7864486,24.1321429 4.25327103,24.1321429 C4.82383178,24.1321429 5.29065421,24.0285714 5.55,23.8732143 C5.80934579,23.7178571 5.96495327,23.4589286 5.96495327,23.0446429 C5.96495327,22.8892857 5.91308411,22.7339286 5.86121495,22.6303571 C5.80934579,22.5267857 5.70560748,22.4232143 5.55,22.3196429 C5.39439252,22.2160714 5.18691589,22.1125 4.87570093,22.0089286 C4.56448598,21.9053571 4.20140187,21.8017857 3.73457944,21.6982143 C3.26775701,21.5946429 2.85280374,21.4910714 2.48971963,21.3357143 C2.12663551,21.1803571 1.7635514,21.025 1.50420561,20.8178571 C1.24485981,20.6107143 1.03738318,20.3517857 0.881775701,19.9892857 C0.726168224,19.6785714 0.674299065,19.2642857 0.674299065,18.7982143 C0.674299065,18.3321429 0.778037383,17.9696429 0.93364486,17.6071429 C1.1411215,17.2446429 1.34859813,16.9339286 1.65981308,16.7267857 C1.97102804,16.4678571 2.33411215,16.3125 2.74906542,16.1571429 C3.16401869,16.0017857 3.63084112,15.95 4.09766355,15.95 C4.87570093,15.95 5.55,16.1053571 6.12056075,16.3642857 C6.6911215,16.6232143 7.20981308,17.0375 7.67663551,17.5035714 L6.27616822,18.85 C5.96495327,18.5392857 5.60186916,18.2803571 5.23878505,18.125 C4.87570093,17.9696429 4.46074766,17.8660714 4.04579439,17.8660714 C3.7864486,17.8660714 3.57897196,17.9178571 3.37149533,17.9178571 C3.21588785,17.9696429 3.06028037,18.0214286 2.95654206,18.125 C2.85280374,18.2285714 2.74906542,18.2803571 2.69719626,18.3839286 C2.6453271,18.4875 2.6453271,18.5910714 2.6453271,18.6946429 C2.6453271,18.85 2.69719626,19.0053571 2.74906542,19.1089286 C2.80093458,19.2125 2.9046729,19.3160714 3.06028037,19.4196429 C3.21588785,19.5232143 3.42336449,19.575 3.68271028,19.6785714 C3.94205607,19.7303571 4.25327103,19.8339286 4.6682243,19.9375 C5.08317757,20.0410714 5.44626168,20.1446429 5.86121495,20.2482143 C6.22429907,20.3517857 6.58738318,20.5589286 6.89859813,20.7660714 C7.20981308,20.9732143 7.46915888,21.2839286 7.67663551,21.5946429 C7.88411215,21.9053571 7.93598131,22.3714286 7.93598131,22.8892857 Z" id="Shape"></path>
                <path d="M15.3014019,22.2160714 C15.3014019,22.3714286 15.3014019,22.475 15.3014019,22.5785714 C15.3014019,22.6821429 15.3014019,22.7857143 15.3014019,22.8375 L10.8925234,22.8375 C10.8925234,23.0964286 10.9443925,23.3035714 11.0481308,23.4589286 C11.1518692,23.6142857 11.2556075,23.7696429 11.411215,23.8732143 C11.5668224,23.9767857 11.7224299,24.0803571 11.8780374,24.1321429 C12.0336449,24.1839286 12.2411215,24.1839286 12.396729,24.1839286 C12.6560748,24.1839286 12.9154206,24.1321429 13.1228972,24.0285714 C13.3303738,23.925 13.5378505,23.8214286 13.6415888,23.6660714 L14.9901869,24.8053571 C14.678972,25.1678571 14.3158879,25.4785714 13.7971963,25.6857143 C13.3303738,25.8928571 12.8116822,25.9964286 12.3448598,25.9964286 C11.8261682,25.9964286 11.3593458,25.8928571 10.8925234,25.7375 C10.4257009,25.5821429 10.114486,25.3232143 9.80327103,24.9607143 C9.49205607,24.65 9.28457944,24.2357143 9.12897196,23.7696429 C8.97336449,23.3035714 8.86962617,22.7857143 8.86962617,22.2160714 C8.86962617,21.6464286 8.97336449,21.1285714 9.12897196,20.6625 C9.28457944,20.1964286 9.54392523,19.7821429 9.80327103,19.4714286 C10.114486,19.1089286 10.4257009,18.85 10.8406542,18.6946429 C11.2556075,18.4875 11.6705607,18.4357143 12.1373832,18.4357143 C12.6042056,18.4357143 13.071028,18.5392857 13.4341121,18.7464286 C13.7971963,18.9535714 14.1602804,19.2125 14.4196262,19.575 C14.678972,19.9375 14.8864486,20.3517857 15.0420561,20.8178571 C15.1976636,21.1803571 15.3014019,21.6982143 15.3014019,22.2160714 Z M13.382243,21.3875 C13.382243,21.2321429 13.3303738,21.0767857 13.2785047,20.9214286 C13.2266355,20.7660714 13.1228972,20.6107143 13.0191589,20.5071429 C12.9154206,20.4035714 12.7598131,20.3 12.6042056,20.1964286 C12.4485981,20.1446429 12.2411215,20.0928571 12.0336449,20.0928571 C11.6705607,20.0928571 11.411215,20.1964286 11.2037383,20.4553571 C10.9962617,20.7142857 10.8925234,21.025 10.8406542,21.3875 L13.382243,21.3875 Z" id="Shape"></path>
                <path d="M22.0443925,25.0642857 C21.8369159,25.2714286 21.6294393,25.4267857 21.3700935,25.5821429 C21.1107477,25.7375 20.8514019,25.8410714 20.5920561,25.9446429 C20.2808411,26.0482143 19.9696262,26.0482143 19.6065421,26.0482143 C19.1397196,26.0482143 18.6728972,25.9446429 18.2579439,25.7892857 C17.8429907,25.5821429 17.4799065,25.3232143 17.1686916,25.0125 C16.8574766,24.7017857 16.5981308,24.2875 16.4425234,23.8214286 C16.2869159,23.3553571 16.1831776,22.8375 16.1831776,22.2678571 C16.1831776,21.6982143 16.2869159,21.1803571 16.4425234,20.7142857 C16.5981308,20.2482143 16.8574766,19.8339286 17.1686916,19.5232143 C17.4799065,19.1607143 17.8429907,18.9017857 18.2579439,18.7464286 C18.6728972,18.5392857 19.1397196,18.4875 19.6584112,18.4875 C20.3845794,18.4875 20.9551402,18.6428571 21.4219626,18.9535714 C21.888785,19.2642857 22.2518692,19.6267857 22.5630841,20.0928571 L21.2663551,21.3875 C21.0588785,21.0767857 20.7995327,20.8178571 20.5401869,20.6107143 C20.2808411,20.4035714 19.9696262,20.3 19.5546729,20.3 C19.0878505,20.3 18.7247664,20.4553571 18.4654206,20.8178571 C18.2060748,21.1803571 18.0504673,21.6464286 18.0504673,22.2678571 C18.0504673,22.8375 18.2060748,23.3553571 18.4654206,23.7178571 C18.7247664,24.0803571 19.0878505,24.2357143 19.5546729,24.2357143 C19.917757,24.2357143 20.2808411,24.1321429 20.5401869,23.9767857 C20.7995327,23.8214286 21.0588785,23.5625 21.3182243,23.3035714 L22.5630841,24.4428571 C22.4593458,24.65 22.2518692,24.8571429 22.0443925,25.0642857 Z" id="Shape"></path>
                <path d="M29.8766355,22.2160714 C29.8766355,22.7857143 29.7728972,23.3035714 29.6172897,23.7696429 C29.4616822,24.2357143 29.2023364,24.65 28.9429907,24.9607143 C28.6317757,25.2714286 28.3205607,25.5821429 27.9056075,25.7375 C27.4906542,25.8928571 27.0757009,25.9964286 26.5570093,25.9964286 C26.0901869,25.9964286 25.6233645,25.8928571 25.2084112,25.7375 C24.7934579,25.5821429 24.4303738,25.2714286 24.171028,24.9607143 C23.8598131,24.65 23.6523364,24.2357143 23.496729,23.7696429 C23.3411215,23.3035714 23.2373832,22.7857143 23.2373832,22.2160714 C23.2373832,21.6464286 23.3411215,21.1285714 23.496729,20.6625 C23.6523364,20.1964286 23.9116822,19.7821429 24.171028,19.4714286 C24.482243,19.1089286 24.7934579,18.85 25.2084112,18.6946429 C25.6233645,18.4875 26.0383178,18.4357143 26.5570093,18.4357143 C27.0238318,18.4357143 27.4906542,18.5392857 27.9056075,18.6946429 C28.3205607,18.9017857 28.6836449,19.1607143 28.9429907,19.4714286 C29.2542056,19.8339286 29.4616822,20.1964286 29.6172897,20.6625 C29.7728972,21.1285714 29.8766355,21.6464286 29.8766355,22.2160714 Z M27.9056075,22.2160714 C27.9056075,21.6464286 27.8018692,21.1803571 27.5943925,20.8178571 C27.3869159,20.4553571 27.0238318,20.2482143 26.5570093,20.2482143 C26.0901869,20.2482143 25.7271028,20.4553571 25.5196262,20.8178571 C25.3121495,21.1803571 25.2084112,21.6464286 25.2084112,22.2160714 C25.2084112,22.7857143 25.3121495,23.2517857 25.5196262,23.6142857 C25.7271028,23.9767857 26.0901869,24.1839286 26.5570093,24.1839286 C26.8163551,24.1839286 26.9719626,24.1321429 27.1794393,24.0285714 C27.3350467,23.925 27.4906542,23.7696429 27.5943925,23.6142857 C27.6981308,23.4071429 27.8018692,23.2 27.8537383,22.9928571 C27.9056075,22.6821429 27.9056075,22.475 27.9056075,22.2160714 Z" id="Shape"></path>
                <path d="M35.5303738,25.8410714 L35.5303738,21.8535714 C35.5303738,21.1803571 35.4266355,20.7660714 35.2191589,20.5071429 C35.0116822,20.2482143 34.7004673,20.1446429 34.285514,20.1446429 C33.8705607,20.1446429 33.5593458,20.2482143 33.3518692,20.5071429 C33.1443925,20.7660714 33.0406542,21.1803571 33.0406542,21.8017857 L33.0406542,25.7892857 L31.1214953,25.7892857 L31.1214953,18.5392857 L33.0406542,18.5392857 L33.0406542,19.0053571 C33.1962617,18.85 33.4556075,18.6946429 33.7149533,18.5392857 C34.0261682,18.4357143 34.3373832,18.3321429 34.7523364,18.3321429 C35.6859813,18.3321429 36.3602804,18.6428571 36.8271028,19.2125 C37.2420561,19.8339286 37.5014019,20.6107143 37.5014019,21.6464286 L37.5014019,25.7892857 L35.5303738,25.7892857 L35.5303738,25.8410714 Z" id="Shape"></path>
                <path d="M43.0514019,25.8410714 L43.0514019,25.375 C42.8439252,25.5303571 42.6364486,25.6857143 42.3771028,25.7892857 C42.117757,25.8928571 41.8065421,25.9964286 41.4953271,25.9964286 C41.0803738,25.9964286 40.7172897,25.9446429 40.4060748,25.7892857 C40.0429907,25.6339286 39.7317757,25.4267857 39.4724299,25.0642857 C39.2130841,24.7017857 39.0056075,24.3392857 38.85,23.8732143 C38.6943925,23.4071429 38.6425234,22.7857143 38.6425234,22.1125 C38.6425234,21.5428571 38.6943925,21.0767857 38.85,20.6107143 C38.9537383,20.1446429 39.161215,19.7821429 39.4205607,19.4196429 C39.6799065,19.1089286 39.9392523,18.85 40.3023364,18.6428571 C40.6654206,18.4357143 41.0803738,18.3839286 41.4953271,18.3839286 C41.8065421,18.3839286 42.117757,18.4357143 42.3771028,18.5392857 C42.6364486,18.6428571 42.8439252,18.7982143 43.0514019,18.9535714 L43.0514019,16.6232143 L44.9705607,15.6392857 L44.9705607,25.8410714 L43.0514019,25.8410714 Z M43.0514019,20.8178571 C42.7401869,20.4035714 42.3252336,20.1964286 41.7546729,20.1964286 C40.9766355,20.1964286 40.6135514,20.8178571 40.6135514,22.0607143 C40.6135514,22.8375 40.7172897,23.3553571 40.9766355,23.7178571 C41.1841121,24.0285714 41.4953271,24.2357143 41.9102804,24.2357143 C42.2214953,24.2357143 42.428972,24.1839286 42.6364486,24.0803571 C42.7920561,23.9767857 42.9476636,23.8214286 43.103271,23.6142857 L43.103271,20.8178571 L43.0514019,20.8178571 Z" id="Shape"></path>
                <polygon id="Shape" points="50.6761682 25.8410714 50.6761682 16.0535714 52.6471963 16.0535714 52.6471963 23.925 57.5747664 23.925 57.5747664 25.8410714 50.6761682 25.8410714"></polygon>
                <path d="M62.8135514,25.8410714 L62.8135514,25.375 C62.6579439,25.5821429 62.3985981,25.7375 62.0873832,25.8410714 C61.7761682,25.9446429 61.4649533,26.0482143 61.1537383,26.0482143 C60.8425234,26.0482143 60.4794393,25.9964286 60.1682243,25.8928571 C59.8570093,25.7892857 59.5457944,25.6339286 59.2864486,25.4267857 C59.0271028,25.2196429 58.8196262,24.9607143 58.6640187,24.5982143 C58.5084112,24.2875 58.4046729,23.8732143 58.4046729,23.4589286 C58.4046729,23.0446429 58.4565421,22.6821429 58.6121495,22.3714286 C58.767757,22.0607143 58.9752336,21.8017857 59.2345794,21.5946429 C59.4939252,21.3875 59.8051402,21.2321429 60.1682243,21.1285714 C60.5313084,21.025 60.8943925,20.9732143 61.361215,20.9732143 C61.6724299,20.9732143 61.9836449,21.025 62.1911215,21.0767857 C62.3985981,21.1285714 62.6060748,21.1803571 62.7616822,21.2839286 L62.7616822,20.9214286 C62.7616822,20.6625 62.6579439,20.4553571 62.5023364,20.2482143 C62.346729,20.0410714 62.0873832,19.9892857 61.7242991,19.9892857 C61.5168224,19.9892857 61.3093458,19.9892857 61.1537383,20.0410714 C60.9981308,20.0928571 60.8425234,20.0928571 60.6869159,20.1446429 C60.5313084,20.1964286 60.3757009,20.2482143 60.2200935,20.3 C60.064486,20.3517857 59.9088785,20.4553571 59.753271,20.5071429 L59.0271028,19.1607143 C59.2345794,19.0571429 59.4420561,18.9535714 59.6495327,18.85 C59.8570093,18.7464286 60.064486,18.6946429 60.2719626,18.6428571 C60.4794393,18.5910714 60.738785,18.5392857 60.9462617,18.4875 C61.2056075,18.4357143 61.4649533,18.4357143 61.7761682,18.4357143 C62.2429907,18.4357143 62.6060748,18.4875 62.9691589,18.5910714 C63.332243,18.6946429 63.6434579,18.85 63.9028037,19.1089286 C64.1621495,19.3678571 64.3696262,19.575 64.5252336,19.9375 C64.6808411,20.2482143 64.7327103,20.6107143 64.7327103,21.025 L64.7327103,25.9446429 L62.8135514,25.9446429 L62.8135514,25.8410714 Z M62.8135514,22.7857143 C62.6579439,22.6821429 62.4504673,22.6303571 62.2948598,22.5785714 C62.0873832,22.5267857 61.8280374,22.5267857 61.4649533,22.5267857 C61.1018692,22.5267857 60.8425234,22.6303571 60.6350467,22.7857143 C60.4275701,22.9410714 60.3238318,23.1482143 60.3238318,23.4589286 C60.3238318,23.7178571 60.4275701,23.925 60.5831776,24.1321429 C60.738785,24.3392857 61.05,24.4428571 61.4649533,24.4428571 C61.7761682,24.4428571 62.035514,24.3910714 62.2948598,24.2357143 C62.5542056,24.0803571 62.7098131,23.925 62.8135514,23.7696429 L62.8135514,22.7857143 Z" id="Shape"></path>
                <path d="M70.6976636,25.8410714 L70.6976636,21.8535714 C70.6976636,21.1803571 70.5939252,20.7660714 70.3864486,20.5071429 C70.178972,20.2482143 69.867757,20.1446429 69.4528037,20.1446429 C69.0378505,20.1446429 68.7266355,20.2482143 68.5191589,20.5071429 C68.3116822,20.7660714 68.2079439,21.1803571 68.2079439,21.8017857 L68.2079439,25.7892857 L66.288785,25.7892857 L66.288785,18.5392857 L68.2079439,18.5392857 L68.2079439,19.0053571 C68.3635514,18.85 68.6228972,18.6946429 68.882243,18.5392857 C69.1934579,18.4357143 69.5046729,18.3321429 69.9196262,18.3321429 C70.853271,18.3321429 71.5275701,18.6428571 71.9943925,19.2125 C72.4093458,19.8339286 72.6686916,20.6107143 72.6686916,21.6464286 L72.6686916,25.7892857 L70.6976636,25.7892857 L70.6976636,25.8410714 Z" id="Shape"></path>
                <path d="M80.1378505,24.5982143 C80.1378505,25.2196429 80.0859813,25.7375 79.982243,26.2035714 C79.8785047,26.6696429 79.7228972,27.0321429 79.5154206,27.3946429 C79.2560748,27.7053571 78.9448598,27.9642857 78.5299065,28.1714286 C78.1149533,28.3785714 77.5962617,28.4821429 76.9219626,28.5857143 L76.2476636,27.1357143 C76.6107477,27.0839286 76.9219626,27.0321429 77.1813084,26.9285714 C77.4406542,26.8767857 77.6481308,26.7732143 77.7518692,26.6178571 C77.9074766,26.4625 78.011215,26.3071429 78.0630841,26.1517857 C78.1149533,25.9446429 78.1668224,25.7375 78.1668224,25.4267857 C77.9593458,25.5821429 77.7518692,25.7375 77.4925234,25.8410714 C77.2331776,25.9446429 76.9219626,26.0482143 76.6107477,26.0482143 C76.1957944,26.0482143 75.8327103,25.9964286 75.5214953,25.8410714 C75.1584112,25.6857143 74.8471963,25.4785714 74.5878505,25.1160714 C74.3285047,24.7535714 74.121028,24.3910714 73.9654206,23.925 C73.8098131,23.4589286 73.7579439,22.8375 73.7579439,22.1642857 C73.7579439,21.5946429 73.8098131,21.1285714 73.9654206,20.6625 C74.0691589,20.1964286 74.2766355,19.8339286 74.5359813,19.4714286 C74.7953271,19.1607143 75.0546729,18.9017857 75.417757,18.6946429 C75.7808411,18.4875 76.1957944,18.4357143 76.6107477,18.4357143 C76.9219626,18.4357143 77.2331776,18.4875 77.4925234,18.5910714 C77.7518692,18.6946429 77.9593458,18.85 78.1668224,19.0053571 L78.1668224,18.5910714 L80.0859813,18.5910714 L80.0859813,24.5982143 L80.1378505,24.5982143 Z M78.2186916,20.8178571 C77.9074766,20.4035714 77.4925234,20.1964286 76.9219626,20.1964286 C76.1439252,20.1964286 75.7808411,20.8178571 75.7808411,22.0607143 C75.7808411,22.8375 75.8845794,23.3553571 76.1439252,23.7178571 C76.3514019,24.0285714 76.6626168,24.2357143 77.0775701,24.2357143 C77.388785,24.2357143 77.5962617,24.1839286 77.8037383,24.0803571 C77.9593458,23.9767857 78.1149533,23.8214286 78.2705607,23.6142857 L78.2705607,20.8178571 L78.2186916,20.8178571 Z" id="Shape"></path>
                <path d="M86.1546729,25.8410714 L86.1546729,25.375 C85.9990654,25.5303571 85.7397196,25.6857143 85.4803738,25.8410714 C85.221028,25.9964286 84.8579439,26.0482143 84.4429907,26.0482143 C83.5093458,26.0482143 82.8350467,25.7375 82.3682243,25.1678571 C81.9014019,24.5982143 81.6939252,23.7696429 81.6939252,22.7339286 L81.6939252,18.5910714 L83.6130841,18.5910714 L83.6130841,22.5785714 C83.6130841,22.8892857 83.6649533,23.2 83.7168224,23.4071429 C83.7686916,23.6142857 83.8724299,23.8214286 83.9761682,23.925 C84.0799065,24.0803571 84.1836449,24.1321429 84.3911215,24.1839286 C84.546729,24.2357143 84.7023364,24.2875 84.9098131,24.2875 C85.3247664,24.2875 85.6359813,24.1839286 85.8434579,23.925 C86.0509346,23.6660714 86.1546729,23.2517857 86.1546729,22.6303571 L86.1546729,18.6428571 L88.0738318,18.6428571 L88.0738318,25.9964286 L86.1546729,25.9964286 L86.1546729,25.8410714 Z" id="Shape"></path>
                <path d="M93.7275701,25.8410714 L93.7275701,25.375 C93.5719626,25.5821429 93.3126168,25.7375 93.0014019,25.8410714 C92.6901869,25.9446429 92.378972,26.0482143 92.067757,26.0482143 C91.7565421,26.0482143 91.3934579,25.9964286 91.082243,25.8928571 C90.771028,25.7892857 90.4598131,25.6339286 90.2004673,25.4267857 C89.9411215,25.2196429 89.7336449,24.9607143 89.5780374,24.5982143 C89.4224299,24.2875 89.3186916,23.8732143 89.3186916,23.4589286 C89.3186916,23.0446429 89.3705607,22.6821429 89.5261682,22.3714286 C89.6817757,22.0607143 89.8892523,21.8017857 90.1485981,21.5946429 C90.4079439,21.3875 90.7191589,21.2321429 91.082243,21.1285714 C91.4453271,21.025 91.8084112,20.9732143 92.2752336,20.9732143 C92.5864486,20.9732143 92.8976636,21.025 93.1051402,21.0767857 C93.3126168,21.1285714 93.5200935,21.1803571 93.6757009,21.2839286 L93.6757009,20.9214286 C93.6757009,20.6625 93.5719626,20.4553571 93.4163551,20.2482143 C93.2607477,20.0410714 93.0014019,19.9892857 92.6383178,19.9892857 C92.4308411,19.9892857 92.2233645,19.9892857 92.067757,20.0410714 C91.9121495,20.0928571 91.7565421,20.0928571 91.6009346,20.1446429 C91.4453271,20.1964286 91.2897196,20.2482143 91.1341121,20.3 C90.9785047,20.3517857 90.8228972,20.4553571 90.6672897,20.5071429 L89.9411215,19.1607143 C90.1485981,19.0571429 90.3560748,18.9535714 90.5635514,18.85 C90.771028,18.7464286 90.9785047,18.6946429 91.1859813,18.6428571 C91.3934579,18.5910714 91.6528037,18.5392857 91.8602804,18.4875 C92.1196262,18.4357143 92.378972,18.4357143 92.6901869,18.4357143 C93.1570093,18.4357143 93.5200935,18.4875 93.8831776,18.5910714 C94.2462617,18.6946429 94.5574766,18.85 94.8168224,19.1089286 C95.0761682,19.3678571 95.2836449,19.575 95.4392523,19.9375 C95.5948598,20.2482143 95.646729,20.6107143 95.646729,21.025 L95.646729,25.9446429 L93.7275701,25.9446429 L93.7275701,25.8410714 Z M93.7275701,22.7857143 C93.5719626,22.6821429 93.364486,22.6303571 93.2088785,22.5785714 C93.0014019,22.5267857 92.7420561,22.5267857 92.378972,22.5267857 C92.0158879,22.5267857 91.7565421,22.6303571 91.5490654,22.7857143 C91.3415888,22.9410714 91.2378505,23.1482143 91.2378505,23.4589286 C91.2378505,23.7178571 91.3415888,23.925 91.4971963,24.1321429 C91.6528037,24.3392857 91.9640187,24.4428571 92.378972,24.4428571 C92.6901869,24.4428571 92.9495327,24.3910714 93.2088785,24.2357143 C93.4682243,24.0803571 93.6238318,23.925 93.7275701,23.7696429 L93.7275701,22.7857143 Z" id="Shape"></path>
                <path d="M103.115888,24.5982143 C103.115888,25.2196429 103.064019,25.7375 102.96028,26.2035714 C102.856542,26.6696429 102.700935,27.0321429 102.493458,27.3946429 C102.234112,27.7053571 101.922897,27.9642857 101.507944,28.1714286 C101.092991,28.3785714 100.574299,28.4821429 99.9,28.5857143 L99.2257009,27.1357143 C99.588785,27.0839286 99.9,27.0321429 100.159346,26.9285714 C100.418692,26.8767857 100.626168,26.7732143 100.729907,26.6178571 C100.885514,26.4625 100.989252,26.3071429 101.041121,26.1517857 C101.092991,25.9446429 101.14486,25.7375 101.14486,25.4267857 C100.937383,25.5821429 100.729907,25.7375 100.470561,25.8410714 C100.211215,25.9446429 99.9,26.0482143 99.588785,26.0482143 C99.1738318,26.0482143 98.8107477,25.9964286 98.4995327,25.8410714 C98.1364486,25.6857143 97.8252336,25.4785714 97.5658879,25.1160714 C97.3065421,24.7535714 97.0990654,24.3910714 96.9434579,23.925 C96.7878505,23.4589286 96.7359813,22.8375 96.7359813,22.1642857 C96.7359813,21.5946429 96.7878505,21.1285714 96.9434579,20.6625 C97.0471963,20.1964286 97.2546729,19.8339286 97.5140187,19.4714286 C97.7733645,19.1607143 98.0327103,18.9017857 98.3957944,18.6946429 C98.7588785,18.4875 99.1738318,18.4357143 99.588785,18.4357143 C99.9,18.4357143 100.211215,18.4875 100.470561,18.5910714 C100.729907,18.6946429 100.937383,18.85 101.14486,19.0053571 L101.14486,18.5910714 L103.064019,18.5910714 L103.064019,24.5982143 L103.115888,24.5982143 Z M101.196729,20.8178571 C100.885514,20.4035714 100.470561,20.1964286 99.9,20.1964286 C99.1219626,20.1964286 98.7588785,20.8178571 98.7588785,22.0607143 C98.7588785,22.8375 98.8626168,23.3553571 99.1219626,23.7178571 C99.3294393,24.0285714 99.6406542,24.2357143 100.055607,24.2357143 C100.366822,24.2357143 100.574299,24.1839286 100.781776,24.0803571 C100.937383,23.9767857 101.092991,23.8214286 101.248598,23.6142857 L101.248598,20.8178571 L101.196729,20.8178571 Z" id="Shape"></path>
                <path d="M110.740654,22.2160714 C110.740654,22.3714286 110.740654,22.475 110.740654,22.5785714 C110.740654,22.6821429 110.740654,22.7857143 110.740654,22.8375 L106.331776,22.8375 C106.331776,23.0964286 106.383645,23.3035714 106.487383,23.4589286 C106.591121,23.6142857 106.69486,23.7696429 106.850467,23.8732143 C107.006075,23.9767857 107.161682,24.0803571 107.31729,24.1321429 C107.472897,24.1839286 107.680374,24.1839286 107.835981,24.1839286 C108.095327,24.1839286 108.354673,24.1321429 108.56215,24.0285714 C108.769626,23.925 108.977103,23.8214286 109.080841,23.6660714 L110.481308,24.8571429 C110.170093,25.2196429 109.807009,25.5303571 109.288318,25.7375 C108.821495,25.9446429 108.302804,26.0482143 107.835981,26.0482143 C107.31729,26.0482143 106.850467,25.9446429 106.383645,25.7892857 C105.916822,25.6339286 105.605607,25.375 105.294393,25.0125 C104.983178,24.7017857 104.775701,24.2875 104.620093,23.8214286 C104.464486,23.3553571 104.360748,22.8375 104.360748,22.2678571 C104.360748,21.6982143 104.464486,21.1803571 104.620093,20.7142857 C104.775701,20.2482143 105.035047,19.8339286 105.294393,19.5232143 C105.605607,19.1607143 105.916822,18.9017857 106.331776,18.7464286 C106.746729,18.5392857 107.161682,18.4875 107.628505,18.4875 C108.095327,18.4875 108.56215,18.5910714 108.925234,18.7982143 C109.288318,19.0053571 109.651402,19.2642857 109.910748,19.6267857 C110.170093,19.9892857 110.37757,20.4035714 110.533178,20.8696429 C110.688785,21.1803571 110.740654,21.6982143 110.740654,22.2160714 Z M108.873364,21.3875 C108.873364,21.2321429 108.821495,21.0767857 108.769626,20.9214286 C108.717757,20.7660714 108.614019,20.6107143 108.51028,20.5071429 C108.406542,20.4035714 108.250935,20.3 108.095327,20.1964286 C107.93972,20.1446429 107.732243,20.0928571 107.524766,20.0928571 C107.161682,20.0928571 106.902336,20.1964286 106.69486,20.4553571 C106.487383,20.7142857 106.383645,21.025 106.331776,21.3875 L108.873364,21.3875 Z" id="Shape"></path>
            </g>
            <g id="Group">
                <path d="M15.46875,7.78235294 C16.3541667,7.78235294 17.1875,7.88823529 18.0208333,8.15294118 C17.34375,3.70588235 13.59375,0.264705882 9.0625,0.264705882 L0,0.264705882 L0,9.47647059 C0,13.2882353 2.34375,16.6235294 5.625,18 C5.625,17.9470588 5.625,17.8411765 5.625,17.7882353 C5.625,12.2823529 10.0520833,7.78235294 15.46875,7.78235294 Z" id="Shape"></path>
                <path d="M9.0625,19.4823529 C8.17708333,19.4823529 7.34375,19.3764706 6.51041667,19.1117647 C7.13541667,23.5588235 10.9375,26.9470588 15.46875,27 L15.6770833,27 L24.53125,27 L24.53125,17.7882353 C24.53125,13.9235294 22.1875,10.6411765 18.90625,9.26470588 C18.90625,9.31764706 18.90625,9.42352941 18.90625,9.47647059 C18.90625,14.9823529 14.4791667,19.4823529 9.0625,19.4823529 Z" id="Shape"></path>
                <path d="M6.40625,17.7882353 C6.40625,17.9470588 6.40625,18.1058824 6.40625,18.2647059 C7.23958333,18.5294118 8.125,18.6352941 9.01041667,18.6352941 C14.0104167,18.6352941 18.0729167,14.5058824 18.0729167,9.42352941 C18.0729167,9.26470588 18.0729167,9.10588235 18.0729167,8.94705882 C17.2395833,8.68235294 16.3541667,8.57647059 15.46875,8.57647059 C10.46875,8.57647059 6.40625,12.7058824 6.40625,17.7882353 Z" id="Shape"></path>
            </g>
        </g>
    </g>
</svg>