<?xml version="1.0" encoding="UTF-8"?>
<svg width="63px" height="75px" viewBox="0 0 63 75" version="1.1" xmlns="http://www.w3.org/2000/svg" xmlns:xlink="http://www.w3.org/1999/xlink">
    <!-- Generator: Sketch 48.2 (47327) - http://www.bohemiancoding.com/sketch -->
    <title>PDF Icon</title>
    <desc>Created with Sketch.</desc>
    <defs>
        <polygon id="path-1" points="0 75 62.114 75 62.114 0 0 0"></polygon>
    </defs>
    <g id="850_MainPage" stroke="none" stroke-width="1" fill="none" fill-rule="evenodd" transform="translate(-751.000000, -3201.000000)">
        <g id="PDF-Icon" transform="translate(751.000000, 3201.000000)">
            <path d="M16.953,27.0981 C17.246,27.1411 17.621,27.1601 18.043,27.1601 C19.926,27.1601 21.536,26.6991 22.621,25.6761 C23.457,24.8831 23.918,23.7111 23.918,22.3281 C23.918,20.9491 23.313,19.7771 22.411,19.0621 C21.469,18.3091 20.067,17.9341 18.102,17.9341 C16.157,17.9341 14.774,18.0591 13.793,18.2271 L13.793,32.1371 L16.95,32.1371 L16.95,27.0981 L16.953,27.0981 Z M16.953,20.4691 C17.184,20.4061 17.621,20.3441 18.274,20.3441 C19.864,20.3441 20.762,21.1171 20.762,22.4141 C20.762,23.8591 19.715,24.7151 18.02,24.7151 C17.559,24.7151 17.227,24.6951 16.953,24.6331 L16.953,20.4691 Z" id="Fill-1" fill="#020303"></path>
            <path d="M35.8714,30.4648 C37.2304,29.3118 38.2154,27.4528 38.2154,24.7538 C38.2154,22.2658 37.2934,20.5268 35.8324,19.4408 C34.4734,18.4178 32.7384,17.9338 30.0594,17.9338 C28.4494,17.9338 26.9184,18.0388 25.7504,18.2268 L25.7504,32.0738 C26.5434,32.1798 27.7154,32.2848 29.3664,32.2848 C32.1254,32.2848 34.3874,31.6988 35.8714,30.4648 Z M28.9454,20.5078 C29.2154,20.4448 29.6764,20.3828 30.3874,20.3828 C33.1294,20.3828 34.8444,21.9298 34.8244,24.8588 C34.8244,28.2268 32.9414,29.8158 30.0554,29.7968 C29.6564,29.7968 29.2194,29.7968 28.9454,29.7338 L28.9454,20.5078 Z" id="Fill-3" fill="#020303"></path>
            <polygon id="Fill-5" fill="#020303" points="43.305 26.4731 48.367 26.4731 48.367 23.8751 43.305 23.8751 43.305 20.6561 48.723 20.6561 48.723 18.0391 40.106 18.0391 40.106 32.1411 43.305 32.1411"></polygon>
            <path d="M8.6492,75 L53.4652,75 C58.2382,75 62.1132,71.129 62.1132,66.352 L62.1132,8.648 C62.1092,3.871 58.2382,0 53.4612,0 L8.6492,0 C3.8712,0 0.0002,3.871 0.0002,8.648 L0.0002,66.355 C0.0002,71.129 3.8712,75 8.6492,75 Z M4.6882,8.648 C4.6882,6.465 6.4652,4.688 8.6492,4.688 L53.4652,4.688 C55.6452,4.688 57.4222,6.465 57.4222,8.648 L57.4222,66.355 C57.4222,68.539 55.6452,70.316 53.4612,70.316 L8.6492,70.316 C6.4652,70.312 4.6882,68.535 4.6882,66.352 L4.6882,8.648 Z" id="Fill-7" fill="#020303"></path>
            <mask id="mask-2" fill="white">
                <use xlink:href="#path-1"></use>
            </mask>
            <g id="Clip-10"></g>
            <polygon id="Fill-9" fill="#020303" mask="url(#mask-2)" points="11.133 50.04 50.977 50.04 50.977 45.352 11.133 45.352"></polygon>
            <polygon id="Fill-11" fill="#020303" mask="url(#mask-2)" points="11.133 56.958 50.977 56.958 50.977 52.27 11.133 52.27"></polygon>
            <polygon id="Fill-12" fill="#020303" mask="url(#mask-2)" points="11.133 63.876 50.977 63.876 50.977 59.188 11.133 59.188"></polygon>
        </g>
    </g>
</svg>