<?xml version="1.0" encoding="UTF-8"?>
<svg width="65px" height="65px" viewBox="0 0 65 65" version="1.1" xmlns="http://www.w3.org/2000/svg" xmlns:xlink="http://www.w3.org/1999/xlink">
    <!-- Generator: Sketch 48.2 (47327) - http://www.bohemiancoding.com/sketch -->
    <title>website icon</title>
    <desc>Created with Sketch.</desc>
    <defs></defs>
    <g id="850_MainPage" stroke="none" stroke-width="1" fill="none" fill-rule="evenodd" transform="translate(-479.000000, -2992.000000)">
        <path d="M511.5,2992 C493.577132,2992 479,3006.57713 479,3024.5 C479,3042.42287 493.577132,3057 511.5,3057 C529.422868,3057 544,3042.42287 544,3024.5 C544,3006.57713 529.422868,2992 511.5,2992 Z M509.232558,2996.91279 L509.232558,3007.0931 L501.367054,3007.0931 C503.209225,3001.90419 505.894884,2998.10194 509.232558,2996.91279 Z M513.767442,2996.91279 C517.105116,2998.10194 519.790775,3001.90419 521.632946,3007.0931 L513.767442,3007.0931 L513.767442,2996.91279 Z M501.036512,2998.56651 C499.375736,3000.91659 497.954806,3003.79775 496.832171,3007.0931 L489.604574,3007.0931 C492.588527,3003.33721 496.517752,3000.3845 501.036512,2998.56651 Z M521.963488,2998.56651 C526.482248,3000.3845 530.411473,3003.33721 533.395426,3007.0931 L526.167829,3007.0931 C525.045194,3003.79775 523.624264,3000.91659 521.963488,2998.56651 Z M486.676047,3011.62798 L495.533178,3011.62798 C494.773333,3014.9062 494.305736,3018.4807 494.163643,3022.20938 L483.629612,3022.20938 C483.935969,3018.41822 485.01124,3014.83566 486.676047,3011.62798 Z M500.044884,3011.62798 L509.232558,3011.62798 L509.232558,3022.20938 L498.698527,3022.20938 C498.836589,3018.49682 499.293101,3014.89109 500.044884,3011.62798 Z M513.767442,3011.62798 L522.955116,3011.62798 C523.706899,3014.89109 524.163411,3018.49682 524.301473,3022.20938 L513.767442,3022.20938 L513.767442,3011.62798 Z M527.466822,3011.62798 L536.323953,3011.62798 C537.98876,3014.83566 539.064031,3018.41822 539.370388,3022.20938 L528.836357,3022.20938 C528.694264,3018.4807 528.226667,3014.9062 527.466822,3011.62798 Z M483.629612,3026.74426 L494.163643,3026.74426 C494.301705,3030.48 494.773333,3034.03837 495.533178,3037.32566 L486.652868,3037.32566 C484.995116,3034.11295 483.928915,3030.53442 483.629612,3026.74426 Z M498.698527,3026.74426 L509.232558,3026.74426 L509.232558,3037.32566 L500.044884,3037.32566 C499.293101,3034.05752 498.832558,3030.45581 498.698527,3026.74426 Z M513.767442,3026.74426 L524.301473,3026.74426 C524.167442,3030.45581 523.706899,3034.05752 522.955116,3037.32566 L513.767442,3037.32566 L513.767442,3026.74426 Z M528.836357,3026.74426 L539.370388,3026.74426 C539.071085,3030.53442 538.004884,3034.11295 536.347132,3037.32566 L527.466822,3037.32566 C528.226667,3034.03837 528.698295,3030.48 528.836357,3026.74426 Z M489.581395,3041.86054 L496.808992,3041.86054 C497.934651,3045.17101 499.367674,3048.07636 501.036512,3050.43349 C496.505659,3048.60744 492.56938,3045.62752 489.581395,3041.86054 Z M501.343876,3041.86054 L509.232558,3041.86054 L509.232558,3052.06403 C505.890853,3050.87488 503.186047,3047.06457 501.343876,3041.86054 Z M513.767442,3041.86054 L521.656124,3041.86054 C519.813953,3047.06457 517.109147,3050.87488 513.767442,3052.06403 L513.767442,3041.86054 Z M526.191008,3041.86054 L533.418605,3041.86054 C530.43062,3045.62752 526.494341,3048.60744 521.963488,3050.43349 C523.632326,3048.07636 525.065349,3045.17101 526.191008,3041.86054 Z" id="website-icon" fill="#000000"></path>
    </g>
</svg>